<svg width="40" height="40" viewBox="0 0 40 40" fill="none" xmlns="http://www.w3.org/2000/svg">
<g clip-path="url(#clip0_1831_153)">
<path fill-rule="evenodd" clip-rule="evenodd" d="M20 37C29.3888 37 37 29.3888 37 20C37 10.6112 29.3888 3 20 3C10.6112 3 3 10.6112 3 20C3 29.3888 10.6112 37 20 37ZM20 40C31.0457 40 40 31.0457 40 20C40 8.9543 31.0457 0 20 0C8.9543 0 0 8.9543 0 20C0 31.0457 8.9543 40 20 40Z" fill="white"/>
<path d="M29.5 20C29.5 25.2467 25.2467 29.5 20 29.5C14.7533 29.5 10.5 25.2467 10.5 20C10.5 14.7533 14.7533 10.5 20 10.5C25.2467 10.5 29.5 14.7533 29.5 20Z" fill="white"/>
</g>
<defs>
<clipPath id="clip0_1831_153">
<rect width="40" height="40" fill="white"/>
</clipPath>
</defs>
</svg>
