<svg width="48" height="48" viewBox="0 0 48 48" fill="none" xmlns="http://www.w3.org/2000/svg">
<path d="M42 13.85V39C42 39.8 41.7 40.5 41.1 41.1C40.5 41.7 39.8 42 39 42H9C8.2 42 7.5 41.7 6.9 41.1C6.3 40.5 6 39.8 6 39V9C6 8.2 6.3 7.5 6.9 6.9C7.5 6.3 8.2 6 9 6H34.15L42 13.85ZM23.9883 35.75C25.4294 35.75 26.6583 35.2456 27.675 34.2367C28.6917 33.2279 29.2 32.0029 29.2 30.5617C29.2 29.1206 28.6956 27.8917 27.6867 26.875C26.6779 25.8583 25.4529 25.35 24.0117 25.35C22.5706 25.35 21.3417 25.8544 20.325 26.8633C19.3083 27.8721 18.8 29.0971 18.8 30.5383C18.8 31.9794 19.3044 33.2083 20.3133 34.225C21.3221 35.2417 22.5471 35.75 23.9883 35.75ZM11.65 18.8H29.55V11.65H11.65V18.8Z" fill="#F11B43"/>
</svg>
