<svg width="159" height="58" viewBox="0 0 159 58" fill="none" xmlns="http://www.w3.org/2000/svg">
<path d="M33.072 17.536L25.104 40H18.256L10.288 17.536H16.112L21.68 34.496L27.28 17.536H33.072ZM38.111 20.288C37.151 20.288 36.3617 20.0107 35.743 19.456C35.1457 18.88 34.847 18.176 34.847 17.344C34.847 16.4907 35.1457 15.7867 35.743 15.232C36.3617 14.656 37.151 14.368 38.111 14.368C39.0497 14.368 39.8177 14.656 40.415 15.232C41.0337 15.7867 41.343 16.4907 41.343 17.344C41.343 18.176 41.0337 18.88 40.415 19.456C39.8177 20.0107 39.0497 20.288 38.111 20.288ZM40.831 22.144V40H35.359V22.144H40.831ZM43.7085 31.04C43.7085 29.2053 44.0498 27.5947 44.7325 26.208C45.4365 24.8213 46.3858 23.7547 47.5805 23.008C48.7752 22.2613 50.1085 21.888 51.5805 21.888C52.7538 21.888 53.8205 22.1333 54.7805 22.624C55.7618 23.1147 56.5298 23.776 57.0845 24.608V16.32H62.5565V40H57.0845V37.44C56.5725 38.2933 55.8365 38.976 54.8765 39.488C53.9378 40 52.8392 40.256 51.5805 40.256C50.1085 40.256 48.7752 39.8827 47.5805 39.136C46.3858 38.368 45.4365 37.2907 44.7325 35.904C44.0498 34.496 43.7085 32.8747 43.7085 31.04ZM57.0845 31.072C57.0845 29.7067 56.7005 28.6293 55.9325 27.84C55.1858 27.0507 54.2685 26.656 53.1805 26.656C52.0925 26.656 51.1645 27.0507 50.3965 27.84C49.6498 28.608 49.2765 29.6747 49.2765 31.04C49.2765 32.4053 49.6498 33.4933 50.3965 34.304C51.1645 35.0933 52.0925 35.488 53.1805 35.488C54.2685 35.488 55.1858 35.0933 55.9325 34.304C56.7005 33.5147 57.0845 32.4373 57.0845 31.072ZM71.6353 35.488H79.3793V40H65.5233V35.648L72.9473 26.656H65.5872V22.144H79.2193V26.496L71.6353 35.488ZM85.1423 20.288C84.1823 20.288 83.3929 20.0107 82.7743 19.456C82.1769 18.88 81.8783 18.176 81.8783 17.344C81.8783 16.4907 82.1769 15.7867 82.7743 15.232C83.3929 14.656 84.1823 14.368 85.1423 14.368C86.0809 14.368 86.8489 14.656 87.4463 15.232C88.0649 15.7867 88.3743 16.4907 88.3743 17.344C88.3743 18.176 88.0649 18.88 87.4463 19.456C86.8489 20.0107 86.0809 20.288 85.1423 20.288ZM87.8623 22.144V40H82.3903V22.144H87.8623ZM99.9558 40.256C98.2064 40.256 96.6278 39.8827 95.2198 39.136C93.8331 38.3893 92.7344 37.3227 91.9238 35.936C91.1344 34.5493 90.7398 32.928 90.7398 31.072C90.7398 29.2373 91.1451 27.6267 91.9557 26.24C92.7664 24.832 93.8758 23.7547 95.2838 23.008C96.6918 22.2613 98.2704 21.888 100.02 21.888C101.769 21.888 103.348 22.2613 104.756 23.008C106.164 23.7547 107.273 24.832 108.084 26.24C108.894 27.6267 109.3 29.2373 109.3 31.072C109.3 32.9067 108.884 34.528 108.052 35.936C107.241 37.3227 106.121 38.3893 104.692 39.136C103.284 39.8827 101.705 40.256 99.9558 40.256ZM99.9558 35.52C101.001 35.52 101.886 35.136 102.612 34.368C103.358 33.6 103.732 32.5013 103.732 31.072C103.732 29.6427 103.369 28.544 102.644 27.776C101.94 27.008 101.065 26.624 100.02 26.624C98.9531 26.624 98.0678 27.008 97.3638 27.776C96.6598 28.5227 96.3078 29.6213 96.3078 31.072C96.3078 32.5013 96.6491 33.6 97.3318 34.368C98.0358 35.136 98.9104 35.52 99.9558 35.52ZM114.763 40.256C113.803 40.256 113.013 39.9787 112.395 39.424C111.797 38.848 111.499 38.144 111.499 37.312C111.499 36.4587 111.797 35.744 112.395 35.168C113.013 34.592 113.803 34.304 114.763 34.304C115.701 34.304 116.469 34.592 117.067 35.168C117.685 35.744 117.995 36.4587 117.995 37.312C117.995 38.144 117.685 38.848 117.067 39.424C116.469 39.9787 115.701 40.256 114.763 40.256Z" fill="white"/>
<path d="M126.706 16.32V40H121.234V16.32H126.706ZM148.912 22.144L137.712 48.48H131.824L135.92 39.392L128.655 22.144H134.768L138.896 33.312L142.992 22.144H148.912Z" fill="#F11B43"/>
</svg>
